<mxfile host="app.diagrams.net" modified="2021-04-12T08:35:34.339Z" agent="5.0 (Macintosh; Intel Mac OS X 10_15_7) AppleWebKit/537.36 (KHTML, like Gecko) Chrome/88.0.4324.192 Safari/537.36" etag="hbCSvzPM-pn3a8x-ZZaV" version="14.2.9" type="github">
  <diagram id="OEEgM5_fH-xbBg2mpcmx" name="Page-1">
    <mxGraphModel dx="946" dy="646" grid="1" gridSize="10" guides="1" tooltips="1" connect="1" arrows="1" fold="1" page="1" pageScale="1" pageWidth="827" pageHeight="1169" math="0" shadow="0">
      <root>
        <mxCell id="0" />
        <mxCell id="1" parent="0" />
        <mxCell id="6Y6k767Hvke-sPqiCbXi-1" value="C端项目" style="rounded=1;whiteSpace=wrap;html=1;verticalAlign=top;" vertex="1" parent="1">
          <mxGeometry x="70" y="130" width="360" height="480" as="geometry" />
        </mxCell>
        <mxCell id="6Y6k767Hvke-sPqiCbXi-3" value="业务项目" style="rounded=1;whiteSpace=wrap;html=1;" vertex="1" parent="1">
          <mxGeometry x="110" y="180" width="280" height="60" as="geometry" />
        </mxCell>
        <mxCell id="6Y6k767Hvke-sPqiCbXi-4" value="" style="rounded=1;whiteSpace=wrap;html=1;" vertex="1" parent="1">
          <mxGeometry x="110" y="260" width="120" height="330" as="geometry" />
        </mxCell>
        <mxCell id="6Y6k767Hvke-sPqiCbXi-10" style="edgeStyle=orthogonalEdgeStyle;rounded=0;orthogonalLoop=1;jettySize=auto;html=1;entryX=1;entryY=0.5;entryDx=0;entryDy=0;" edge="1" parent="1" source="6Y6k767Hvke-sPqiCbXi-5" target="6Y6k767Hvke-sPqiCbXi-1">
          <mxGeometry relative="1" as="geometry" />
        </mxCell>
        <mxCell id="6Y6k767Hvke-sPqiCbXi-5" value="流量回收插件" style="rounded=1;whiteSpace=wrap;html=1;" vertex="1" parent="1">
          <mxGeometry x="540" y="230" width="120" height="60" as="geometry" />
        </mxCell>
        <mxCell id="6Y6k767Hvke-sPqiCbXi-9" style="edgeStyle=orthogonalEdgeStyle;rounded=0;orthogonalLoop=1;jettySize=auto;html=1;exitX=0;exitY=0.5;exitDx=0;exitDy=0;" edge="1" parent="1" source="6Y6k767Hvke-sPqiCbXi-6">
          <mxGeometry relative="1" as="geometry">
            <mxPoint x="430" y="370" as="targetPoint" />
          </mxGeometry>
        </mxCell>
        <mxCell id="6Y6k767Hvke-sPqiCbXi-6" value="js插件" style="rounded=1;whiteSpace=wrap;html=1;" vertex="1" parent="1">
          <mxGeometry x="540" y="340" width="120" height="60" as="geometry" />
        </mxCell>
        <mxCell id="6Y6k767Hvke-sPqiCbXi-8" style="edgeStyle=orthogonalEdgeStyle;rounded=0;orthogonalLoop=1;jettySize=auto;html=1;exitX=0;exitY=0.5;exitDx=0;exitDy=0;entryX=1;entryY=0.5;entryDx=0;entryDy=0;" edge="1" parent="1" source="6Y6k767Hvke-sPqiCbXi-7" target="6Y6k767Hvke-sPqiCbXi-1">
          <mxGeometry relative="1" as="geometry" />
        </mxCell>
        <mxCell id="6Y6k767Hvke-sPqiCbXi-7" value="。。。其它插件" style="rounded=1;whiteSpace=wrap;html=1;" vertex="1" parent="1">
          <mxGeometry x="540" y="450" width="120" height="60" as="geometry" />
        </mxCell>
      </root>
    </mxGraphModel>
  </diagram>
</mxfile>
